<svg width="415" height="150" viewBox="0 0 415 150" fill="none" xmlns="http://www.w3.org/2000/svg">
<path d="M270.946 23.9325C293.901 -11.8997 346.647 8.70377 349.089 30.651C395.741 12.287 415.022 59.3167 395.741 71.3842C417.463 82.1597 402.323 114.857 385.888 108.871C389.137 120.124 370.578 126.502 363.801 120.124C352.508 143.522 310.994 141.283 300.909 129.361C285.598 159.647 248.481 151.137 240.149 138.286C213.316 152.48 195.246 133.221 198.195 123.425C188.897 129.361 171.722 128.491 163.013 116.648C148.849 97.3884 163.013 78.2591 171.722 78.2591C161.059 74.5454 146.895 37.126 188.897 12.287C228.536 -11.1543 259.225 2.43314 270.946 23.9325Z" fill="#6857DB"/>
<path d="M214.149 46.6196V54.0116H199.281C193.625 54.0116 190.797 56.3076 190.797 60.8996C190.797 63.3636 192.029 65.4636 194.493 67.1996C197.013 68.8796 200.401 70.5036 204.657 72.0716C206.561 72.7996 208.185 73.5556 209.529 74.3396C210.873 75.0676 212.217 76.0476 213.561 77.2796C214.905 78.5116 215.913 80.1076 216.585 82.0676C217.257 83.9716 217.593 86.1836 217.593 88.7036C217.593 91.5036 217.005 94.0236 215.829 96.2636C214.653 98.4476 213.141 100.184 211.293 101.472C209.445 102.704 207.541 103.656 205.581 104.328C203.677 104.944 201.801 105.28 199.953 105.336C199.169 105.392 198.049 105.42 196.593 105.42H183.489V98.0276H196.341C200.149 98.0276 203.257 97.2436 205.665 95.6756C208.073 94.0516 209.277 91.6996 209.277 88.6196C209.277 87.1076 208.941 85.7916 208.269 84.6716C207.597 83.4956 206.617 82.4876 205.329 81.6476C204.097 80.8076 202.809 80.0796 201.465 79.4636C200.177 78.8476 198.609 78.2036 196.761 77.5316C196.257 77.3636 195.865 77.2236 195.585 77.1116C186.793 73.7516 182.397 68.2636 182.397 60.6476C182.397 55.9436 183.909 52.4436 186.933 50.1476C189.957 47.7956 193.905 46.6196 198.777 46.6196H214.149ZM236.905 105.42H229.513V72.1556H222.625L225.985 65.0996H236.905V105.42ZM229.177 56.6996C228.449 55.7476 228.085 54.7116 228.085 53.5916C228.085 52.4716 228.449 51.4636 229.177 50.5676C229.905 49.6156 231.025 49.1396 232.537 49.1396C234.049 49.1396 235.169 49.6156 235.897 50.5676C236.625 51.4636 236.989 52.4716 236.989 53.5916C236.989 54.7116 236.625 55.7476 235.897 56.6996C235.169 57.5956 234.049 58.0436 232.537 58.0436C231.025 58.0436 229.905 57.5956 229.177 56.6996ZM243.933 72.1556L258.969 57.1196V65.0996H270.309V72.1556H258.969V89.4596C258.969 91.4196 259.277 93.0436 259.893 94.3316C260.565 95.6196 261.517 96.5436 262.749 97.1036C263.981 97.6076 265.129 97.9436 266.193 98.1116C267.313 98.2796 268.685 98.3636 270.309 98.3636V105.42C263.869 105.42 259.109 104.188 256.029 101.724C252.949 99.2596 251.409 95.1716 251.409 89.4596V72.1556H243.933ZM274.121 72.1556L289.157 57.1196V65.0996H300.497V72.1556H289.157V89.4596C289.157 91.4196 289.465 93.0436 290.081 94.3316C290.753 95.6196 291.705 96.5436 292.937 97.1036C294.169 97.6076 295.317 97.9436 296.381 98.1116C297.501 98.2796 298.873 98.3636 300.497 98.3636V105.42C294.057 105.42 289.297 104.188 286.217 101.724C283.137 99.2596 281.597 95.1716 281.597 89.4596V72.1556H274.121ZM328.248 64.2596C337.768 64.6516 342.528 68.5996 342.528 76.1036C342.528 85.4556 336.396 90.1316 324.132 90.1316H320.688V83.6636H324.72C328.472 83.6636 331.076 83.1036 332.532 81.9836C333.988 80.8076 334.716 78.8756 334.716 76.1876C334.716 74.4516 334.072 73.1636 332.784 72.3236C331.496 71.4276 329.844 70.9796 327.828 70.9796C323.852 70.9796 320.716 72.3796 318.42 75.1796C316.18 77.9796 315.06 81.3396 315.06 85.2596C315.06 89.4036 316.264 92.7636 318.672 95.3396C321.136 97.9156 324.328 99.2036 328.248 99.2036C331.776 99.2036 334.66 98.3356 336.9 96.5996L341.94 101.556C338.076 104.692 333.512 106.26 328.248 106.26C321.864 106.26 316.768 104.384 312.96 100.632C309.152 96.8796 307.248 92.0356 307.248 86.0996C307.248 79.4916 309.124 74.1436 312.876 70.0556C316.628 65.9676 321.752 64.0356 328.248 64.2596ZM349.658 105.42V82.4876C349.658 76.0476 350.862 71.5956 353.27 69.1316C354.446 67.8996 355.874 66.9756 357.554 66.3596C359.234 65.7436 360.69 65.3796 361.922 65.2676C363.21 65.1556 364.946 65.0996 367.13 65.0996H374.522V72.1556H365.618C364.498 72.1556 363.63 72.1836 363.014 72.2396C362.398 72.2956 361.67 72.4916 360.83 72.8276C359.99 73.1636 359.262 73.6956 358.646 74.4236C357.582 75.7676 357.05 78.4556 357.05 82.4876V105.42H349.658Z" fill="#FFE66D"/>
<path d="M18.7547 72.1556L33.7907 57.1196V65.0996H45.1307V72.1556H33.7907V89.4596C33.7907 91.4196 34.0987 93.0436 34.7147 94.3316C35.3867 95.6196 36.3387 96.5436 37.5707 97.1036C38.8027 97.6076 39.9507 97.9436 41.0147 98.1116C42.1347 98.2796 43.5067 98.3636 45.1307 98.3636V105.42C38.6907 105.42 33.9307 104.188 30.8507 101.724C27.7707 99.2596 26.2307 95.1716 26.2307 89.4596V72.1556H18.7547ZM51.8822 105.42V82.4876C51.8822 76.0476 53.0862 71.5956 55.4942 69.1316C56.6702 67.8996 58.0982 66.9756 59.7782 66.3596C61.4582 65.7436 62.9142 65.3796 64.1462 65.2676C65.4342 65.1556 67.1702 65.0996 69.3542 65.0996H76.7462V72.1556H67.8422C66.7222 72.1556 65.8542 72.1836 65.2382 72.2396C64.6222 72.2956 63.8942 72.4916 63.0542 72.8276C62.2142 73.1636 61.4862 73.6956 60.8702 74.4236C59.8062 75.7676 59.2742 78.4556 59.2742 82.4876V105.42H51.8822ZM93.1013 105.42H85.7093V72.1556H78.8213L82.1813 65.0996H93.1013V105.42ZM85.3733 56.6996C84.6453 55.7476 84.2813 54.7116 84.2813 53.5916C84.2813 52.4716 84.6453 51.4636 85.3733 50.5676C86.1013 49.6156 87.2213 49.1396 88.7333 49.1396C90.2453 49.1396 91.3653 49.6156 92.0933 50.5676C92.8213 51.4636 93.1853 52.4716 93.1853 53.5916C93.1853 54.7116 92.8213 55.7476 92.0933 56.6996C91.3653 57.5956 90.2453 58.0436 88.7333 58.0436C87.2213 58.0436 86.1013 57.5956 85.3733 56.6996ZM104.33 124.572V85.2596C104.33 82.3476 104.862 79.6036 105.926 77.0276C106.99 74.4516 108.446 72.2396 110.294 70.3916C112.142 68.4876 114.326 67.0036 116.846 65.9396C119.366 64.8196 122.054 64.2596 124.91 64.2596C127.766 64.2596 130.426 64.8196 132.89 65.9396C135.41 67.0036 137.594 68.4876 139.442 70.3916C141.346 72.2956 142.83 74.5356 143.894 77.1116C144.958 79.6316 145.49 82.3476 145.49 85.2596C145.49 88.1716 144.958 90.9156 143.894 93.4916C142.886 96.0116 141.458 98.2236 139.61 100.128C137.762 102.032 135.578 103.544 133.058 104.664C130.538 105.728 127.822 106.26 124.91 106.26C121.326 106.26 117.994 105.42 114.914 103.74V96.1796C117.658 98.1956 120.906 99.2036 124.658 99.2036C126.674 99.2036 128.494 98.8676 130.118 98.1956C131.798 97.4676 133.198 96.4876 134.318 95.2556C135.494 94.0236 136.39 92.5676 137.006 90.8876C137.622 89.1516 137.93 87.2756 137.93 85.2596C137.93 83.2436 137.622 81.3956 137.006 79.7156C136.39 77.9796 135.522 76.4956 134.402 75.2636C133.282 74.0316 131.91 73.0796 130.286 72.4076C128.718 71.6796 126.926 71.3156 124.91 71.3156C122.95 71.3156 121.158 71.6516 119.534 72.3236C117.966 72.9956 116.594 73.9476 115.418 75.1796C114.298 76.4116 113.43 77.8956 112.814 79.6316C112.198 81.3116 111.89 83.1876 111.89 85.2596V124.572H104.33Z" fill="#6857DB"/>
</svg>
